<?xml version="1.0" standalone="no"?>
<!DOCTYPE svg PUBLIC "-//W3C//DTD SVG 20010904//EN"
 "http://www.w3.org/TR/2001/REC-SVG-20010904/DTD/svg10.dtd">
<svg version="1.0" xmlns="http://www.w3.org/2000/svg"
 width="167.000000pt" height="167.000000pt" viewBox="0 0 167.000000 167.000000"
 preserveAspectRatio="xMidYMid meet">
<metadata>
Created by potrace 1.14, written by Peter Selinger 2001-2017
</metadata>
<g transform="translate(0.000000,167.000000) scale(0.100000,-0.100000)"
fill="#000000" stroke="none">
<path d="M619 1618 c-25 -47 -22 -86 17 -181 38 -94 50 -179 30 -220 -8 -16
-1 -15 44 8 62 32 87 58 96 101 10 55 -41 130 -135 194 -32 22 -33 25 -29 71
5 52 -4 63 -23 27z"/>
<path d="M220 1164 c-43 -19 -79 -51 -92 -84 -6 -14 -14 -103 -17 -199 l-7
-173 -32 -29 c-18 -16 -39 -29 -47 -29 -11 0 -15 -11 -15 -39 0 -32 4 -41 22
-46 36 -11 67 -45 73 -79 2 -17 6 -99 7 -182 3 -149 3 -151 32 -188 31 -41 94
-75 139 -76 25 0 27 3 27 40 0 32 -4 40 -19 40 -30 0 -70 38 -75 73 -3 18 -7
97 -9 177 -3 158 -14 197 -62 223 l-25 13 34 31 c44 42 53 83 55 248 1 157 11
186 66 206 32 12 35 17 35 51 0 35 -2 38 -27 38 -16 -1 -44 -8 -63 -16z"/>
<path d="M1130 1141 c0 -34 8 -49 23 -39 7 5 50 -27 64 -49 14 -21 18 -53 19
-173 2 -169 11 -208 62 -250 22 -18 30 -30 21 -30 -17 0 -50 -33 -68 -68 -8
-14 -13 -84 -15 -180 -2 -99 -8 -167 -16 -183 -12 -26 -47 -49 -75 -49 -11 0
-15 -12 -15 -41 l0 -42 46 7 c96 13 143 66 152 172 l5 64 92 0 c103 0 145 13
187 57 52 54 58 85 55 280 -2 168 -3 180 -26 216 -13 21 -42 50 -64 65 -35 24
-52 27 -143 30 l-104 4 0 58 c0 106 -58 174 -160 187 l-40 6 0 -42z m400 -328
c14 -9 28 -22 32 -27 12 -17 9 -345 -3 -368 -16 -30 -66 -45 -149 -44 l-75 1
-1 52 c-2 67 21 113 66 134 29 14 35 22 35 50 0 29 -5 36 -29 45 -43 15 -65
51 -72 117 l-6 57 89 0 c67 0 95 -4 113 -17z"/>
<path d="M513 1038 c-78 -11 -135 -29 -141 -45 -21 -67 562 -85 680 -22 11 6
17 16 15 22 -4 13 -60 34 -115 43 -62 10 -373 12 -439 2z"/>
</g>
</svg>
